#!OML:ASF I:\Actors\actors\Patient Classification 2\Patient 1\Session 1\actor1.ASF
:FULLY-SPECIFIED
:DEGREES
198
root 0.178106 18.7326 5.11668 11.0458 -7.90775 -3.6192
lowerback 18.5385 2.57102 -13.1256
upperback 4.0103 0.754083 -1.03092
thorax -6.14756 0.550288 6.14857
lowerneck -12.404 6.88137 13.3889
upperneck 28.9281 6.99952 -2.07108
head 12.2259 4.26814 -2.03847
rclavicle 1.66979e-014 2.8625e-014
rhumerus -15.7884 32.9283 -94.8765
rradius 110.163
rwrist -65.2436
rhand -30.2627 -37.5663
rfingers 7.12502
rthumb -3.57112 -67.5161
lclavicle 1.66979e-014 2.8625e-014
lhumerus -2.25529 -26.7678 50.0955
lradius 55.8467
lwrist 11.7132
lhand -20.4026 -56.4654
lfingers 7.12502
lthumb 5.95117 -26.569
rfemur -7.94055 9.0627 12.3498
rtibia 7.15625e-015
rfoot -12.1711 -13.3981
rtoes -5.08105
lfemur -20.9841 2.5749 -12.9037
ltibia 31.6841
lfoot -21.7891 10.8988
ltoes -54.8009
199
root 0.179332 18.7318 5.09827 11.1015 -8.34532 -3.63186
lowerback 18.9463 2.75669 -13.1982
upperback 3.93819 0.903806 -1.08505
thorax -6.47655 0.645252 6.08892
lowerneck -12.4855 6.76552 13.1299
upperneck 28.925 6.79463 -1.76983
head 12.1986 4.18511 -1.9126
rclavicle -7.95139e-016 -3.65764e-014
rhumerus -14.9959 33.7321 -95.5127
rradius 109.098
rwrist -65.0116
rhand -30.1874 -37.3173
rfingers 7.12502
rthumb -3.49842 -67.2683
lclavicle -7.95139e-016 -3.65764e-014
lhumerus -1.6037 -25.3168 48.6558
lradius 54.4342
lwrist 11.4443
lhand -19.7132 -56.3375
lfingers 7.12502
lthumb 6.61673 -26.4608
rfemur -8.17461 9.48092 12.2532
rtibia -4.77083e-015
rfoot -12.122 -13.4459
rtoes -4.88503
lfemur -21.0231 2.8543 -12.9546
ltibia 31.7236
lfoot -21.9192 11.0579
ltoes -54.779
200
root 0.183754 18.7293 5.08718 11.0685 -8.81992 -3.68975
lowerback 19.3338 2.94249 -13.1872
upperback 3.97355 1.08032 -1.14527
thorax -6.6797 0.73843 5.96762
lowerneck -12.6864 6.65878 12.791
upperneck 28.8991 6.60319 -1.4582
head 12.184 4.09949 -1.76444
rclavicle -2.38542e-015 -9.54166e-015
rhumerus -14.0819 34.3898 -96.0593
rradius 107.874
rwrist -64.6918
rhand -30.2994 -37.0039
rfingers 7.12502
rthumb -3.60658 -66.9531
lclavicle -2.38542e-015 -9.54166e-015
lhumerus -0.78202 -23.6678 47.5036
lradius 52.813
lwrist 10.6166
lhand -19.4692 -55.8157
lfingers 7.12502
lthumb 6.85222 -25.9466
rfemur -8.30355 9.95247 12.187
rtibia -2.38542e-015
rfoot -12.1144 -13.4548
rtoes -4.54287
lfemur -20.9345 3.02122 -12.9694
ltibia 31.778
lfoot -22.1532 11.306
ltoes -54.775
201
root 0.17996 18.7271 5.05541 11.4242 -8.98775 -3.71624
lowerback 19.5264 2.99677 -13.2367
upperback 3.95257 1.1061 -1.15595
thorax -6.81168 0.75993 5.97441
lowerneck -12.8514 6.58867 12.5152
upperneck 28.7222 6.50958 -1.3264
head 12.1192 4.03923 -1.68116
rclavicle 1.11319e-014 2.06736e-014
rhumerus -13.0443 34.8557 -96.4784
rradius 106.594
rwrist -64.4414
rhand -30.2811 -36.5072
rfingers 7.12502
rthumb -3.58895 -66.4567
lclavicle 1.11319e-014 2.06736e-014
lhumerus 0.232043 -21.8332 46.641
lradius 50.8615
lwrist 9.19114
lhand -19.8395 -55.6841
lfingers 7.12502
lthumb 6.49476 -25.8036
rfemur -8.85244 10.0713 12.1163
rtibia 1.82882e-014
rfoot -12.0509 -13.4846
rtoes -4.54703
lfemur -21.441 3.27359 -12.9571
ltibia 31.8563
lfoot -22.0652 11.3406
ltoes -54.9719
202
root 0.178841 18.7255 5.02948 11.747 -9.10546 -3.77799
lowerback 19.6541 3.02863 -13.1737
upperback 4.03539 1.14396 -1.17407
thorax -6.79435 0.771354 5.90849
lowerneck -13.0058 6.54878 12.3579
upperneck 28.4147 6.45744 -1.28133
head 12.0135 3.99672 -1.64419
rclavicle -8.74653e-015 3.18055e-015
rhumerus -12.0549 35.0633 -96.8451
rradius 105.462
rwrist -64.2727
rhand -30.4496 -36.4369
rfingers 7.12502
rthumb -3.7516 -66.3836
lclavicle -8.74653e-015 3.18055e-015
lhumerus 1.4516 -19.8411 46.0198
lradius 48.5911
lwrist 7.46237
lhand -20.3768 -56.4496
lfingers 7.12502
lthumb 5.97608 -26.5539
rfemur -9.32389 10.1521 12.0888
rtibia -2.62396e-014
rfoot -12.035 -13.4831
rtoes -4.63662
lfemur -21.9133 3.45289 -12.9132
ltibia 31.9604
lfoot -22.0001 11.395
ltoes -55.1842
203
root 0.181283 18.7243 5.00286 12.0996 -9.05184 -3.79382
lowerback 19.7306 2.99341 -13.0262
upperback 4.19635 1.12742 -1.19208
thorax -6.65084 0.744614 5.81113
lowerneck -13.344 6.52717 12.1701
upperneck 28.1017 6.4135 -1.23342
head 11.9424 3.95411 -1.59468
rclavicle -3.33958e-014 -5.725e-014
rhumerus -11.0876 35.0303 -97.0796
rradius 104.427
rwrist -64.0136
rhand -30.6418 -36.5613
rfingers 7.12502
rthumb -3.93728 -66.5046
lclavicle -3.33958e-014 -5.725e-014
lhumerus 2.8003 -17.6455 45.7662
lradius 46.371
lwrist 5.7866
lhand -20.7792 -57.1484
lfingers 7.12502
lthumb 5.58753 -27.2421
rfemur -9.7929 10.0491 12.0335
rtibia 1.66979e-014
rfoot -12.0379 -13.4686
rtoes -4.1839
lfemur -22.4841 3.48771 -12.9074
ltibia 32.0828
lfoot -21.9183 11.4621
ltoes -55.3356
204
root 0.182393 18.7235 4.97352 12.3677 -9.06995 -3.8222
lowerback 19.9166 3.01923 -12.9992
upperback 4.35813 1.15154 -1.15857
thorax -6.57465 0.743656 5.82645
lowerneck -13.63 6.50332 12.0753
upperneck 27.7959 6.41341 -1.39779
head 11.8782 3.91588 -1.63454
rclavicle -8.74653e-015 -1.59028e-014
rhumerus -10.1417 34.831 -97.1236
rradius 103.386
rwrist -63.7448
rhand -30.7939 -36.2856
rfingers 7.12502
rthumb -4.08414 -66.2262
lclavicle -8.74653e-015 -1.59028e-014
lhumerus 4.10557 -15.2819 46.0075
lradius 44.3351
lwrist 4.25146
lhand -20.965 -57.4645
lfingers 7.12502
lthumb 5.40816 -27.5535
rfemur -10.2002 10.0312 11.9959
rtibia 4.57205e-014
rfoot -11.9722 -13.5124
rtoes -3.69796
lfemur -22.9303 3.54177 -12.8819
ltibia 32.1901
lfoot -21.8809 11.4911
ltoes -55.3076
205
root 0.178539 18.7238 4.94391 12.4681 -9.3096 -3.92001
lowerback 20.2963 3.16999 -13.1356
upperback 4.49832 1.2724 -1.08644
thorax -6.64618 0.800769 5.94783
lowerneck -13.8185 6.49726 11.9807
upperneck 27.5492 6.44317 -1.53371
head 11.8198 3.89632 -1.66149
rclavicle 1.98785e-014 2.38542e-014
rhumerus -9.41937 34.4791 -97.1068
rradius 102.448
rwrist -63.4161
rhand -31.1749 -35.7934
rfingers 7.12502
rthumb -4.45201 -65.7267
lclavicle 1.98785e-014 2.38542e-014
lhumerus 5.29068 -12.8212 46.7155
lradius 42.4472
lwrist 2.61551
lhand -20.9437 -57.8063
lfingers 7.12502
lthumb 5.42871 -27.8958
rfemur -10.4638 10.2729 12.0284
rtibia -2.94201e-014
rfoot -11.8422 -13.6237
rtoes -3.8481
lfemur -23.0965 3.71929 -12.7805
ltibia 32.2702
lfoot -21.9791 11.438
ltoes -55.0513
206
root 0.175401 18.7235 4.91574 12.5585 -9.46429 -4.00442
lowerback 20.72 3.26874 -13.2124
upperback 4.61919 1.32725 -1.03834
thorax -6.74783 0.827768 6.02548
lowerneck -14.0397 6.52965 11.816
upperneck 27.3849 6.49127 -1.49855
head 11.7936 3.8998 -1.60891
rclavicle -1.03368e-014 -1.74931e-014
rhumerus -8.92363 33.9646 -97.073
rradius 101.739
rwrist -63.0776
rhand -31.4434 -35.6808
rfingers 7.12502
rthumb -4.71131 -65.6084
lclavicle -1.03368e-014 -1.74931e-014
lhumerus 6.39069 -10.4651 47.7486
lradius 40.8204
lwrist 0.972393
lhand -20.8814 -58.1792
lfingers 7.12502
lthumb 5.48885 -28.2703
rfemur -10.6905 10.4301 12.0654
rtibia -9.14409e-015
rfoot -11.7146 -13.7138
rtoes -4.25566
lfemur -23.2571 3.84103 -12.6846
ltibia 32.3161
lfoot -22.001 11.4214
ltoes -54.9258
207
root 0.174951 18.7226 4.89082 12.6584 -9.47222 -4.024
lowerback 21.1399 3.27716 -13.2222
upperback 4.7011 1.2737 -1.03855
thorax -6.86679 0.80469 6.04107
lowerneck -14.1004 6.56245 11.739
upperneck 27.1589 6.54762 -1.49477
head 11.7175 3.91207 -1.58582
rclavicle 1.11319e-014 -2.22639e-014
rhumerus -8.44596 33.3534 -96.877
rradius 101.248
rwrist -63.1237
rhand -31.521 -35.9702
rfingers 7.12502
rthumb -4.78619 -65.8961
lclavicle 1.11319e-014 -2.22639e-014
lhumerus 7.34464 -8.38103 49.0214
lradius 39.5791
lwrist -0.539759
lhand -20.8816 -58.4965
lfingers 7.12502
lthumb 5.48869 -28.5876
rfemur -10.8903 10.4257 12.0567
rtibia 4.37326e-015
rfoot -11.6138 -13.7498
rtoes -4.44624
lfemur -23.4521 3.82114 -12.6465
ltibia 32.3235
lfoot -21.8888 11.5042
ltoes -55.0524
208
root 0.174346 18.7249 4.86902 12.7517 -9.49415 -4.01288
lowerback 21.4855 3.24715 -13.3295
upperback 4.78215 1.16122 -1.03748
thorax -6.93558 0.752348 6.13119
lowerneck -13.9696 6.61475 11.6704
upperneck 26.7736 6.6775 -1.57067
head 11.55 3.94689 -1.5889
rclavicle -3.97569e-015 3.18055e-014
rhumerus -7.98733 32.7905 -96.4954
rradius 100.942
rwrist -63.3261
rhand -31.4921 -36.2934
rfingers 7.12502
rthumb -4.7583 -66.2199
lclavicle -3.97569e-015 3.18055e-014
lhumerus 8.10348 -6.57102 50.4812
lradius 38.7553
lwrist -1.84988
lhand -20.8325 -58.8002
lfingers 7.12502
lthumb 5.53612 -28.8926
rfemur -11.0738 10.4296 12.0198
rtibia 2.78299e-015
rfoot -11.5279 -13.8119
rtoes -4.56708
lfemur -23.6091 3.76548 -12.634
ltibia 32.2986
lfoot -21.8021 11.559
ltoes -55.0948
209
root 0.172425 18.729 4.85007 12.8257 -9.49943 -4.01374
lowerback 21.7766 3.18806 -13.4912
upperback 4.89972 1.01207 -1.01864
thorax -6.92631 0.677178 6.28407
lowerneck -13.8772 6.69587 11.5595
upperneck 26.4134 6.84055 -1.60471
head 11.4002 3.99795 -1.56361
rclavicle -2.38542e-015 -1.43125e-014
rhumerus -7.82848 32.2492 -96.1174
rradius 100.946
rwrist -63.1754
rhand -31.1303 -36.5871
rfingers 7.12502
rthumb -4.40898 -66.5212
lclavicle -2.38542e-015 -1.43125e-014
lhumerus 8.7115 -5.28775 51.9941
lradius 38.3819
lwrist -2.68621
lhand -20.8078 -59.0524
lfingers 7.12502
lthumb 5.55995 -29.1454
rfemur -11.2221 10.426 12.0145
rtibia -1.19271e-015
rfoot -11.4811 -13.9382
rtoes -4.86262
lfemur -23.7169 3.66766 -12.5981
ltibia 32.2536
lfoot -21.7681 11.5712
ltoes -54.9893
210
root 0.168963 18.7322 4.83497 12.8663 -9.46409 -4.05991
lowerback 22.0534 3.12211 -13.5692
upperback 5.03063 0.873427 -1.02772
thorax -6.89482 0.603409 6.35648
lowerneck -13.9719 6.77557 11.5107
upperneck 26.2787 6.92969 -1.53017
head 11.3692 4.03765 -1.51277
rclavicle 1.19271e-014 1.90833e-014
rhumerus -7.97766 31.5958 -95.7782
rradius 101.286
rwrist -62.7904
rhand -30.887 -36.9285
rfingers 7.12502
rthumb -4.17398 -66.8673
lclavicle 1.19271e-014 1.90833e-014
lhumerus 9.22437 -4.75046 53.4595
lradius 38.3759
lwrist -2.90007
lhand -20.7804 -59.2583
lfingers 7.12502
lthumb 5.58634 -29.3519
rfemur -11.3026 10.402 12.0831
rtibia 1.31198e-014
rfoot -11.4726 -14.0658
rtoes -5.28784
lfemur -23.7561 3.47263 -12.4928
ltibia 32.1985
lfoot -21.7969 11.5928
ltoes -54.7402
211
root 0.165793 18.7345 4.82383 12.8952 -9.37816 -4.12403
lowerback 22.2691 3.01676 -13.6245
upperback 5.17311 0.701391 -1.02682
thorax -6.81053 0.509671 6.4378
lowerneck -14.032 6.89762 11.6228
upperneck 26.1072 7.08686 -1.61796
head 11.3363 4.10389 -1.53793
rclavicle -7.95139e-015 2.06736e-014
rhumerus -8.23414 30.9399 -95.313
rradius 101.859
rwrist -62.6111
rhand -31.0181 -37.2577
rfingers 7.12502
rthumb -4.30059 -67.1941
lclavicle -7.95139e-015 2.06736e-014
lhumerus 9.50356 -4.85212 54.8263
lradius 38.7035
lwrist -2.55542
lhand -20.7577 -59.4607
lfingers 7.12502
lthumb 5.60831 -29.5549
rfemur -11.333 10.3357 12.1846
rtibia 2.50469e-014
rfoot -11.4684 -14.1026
rtoes -5.64504
lfemur -23.7711 3.19036 -12.349
ltibia 32.1439
lfoot -21.8349 11.6346
ltoes -54.5118
212
root 0.162948 18.7358 4.81604 12.9165 -9.21318 -4.16751
lowerback 22.4316 2.84705 -13.7912
upperback 5.31186 0.437784 -0.941576
thorax -6.68164 0.371653 6.70303
lowerneck -13.89 7.07765 11.7766
upperneck 25.7917 7.39965 -1.91738
head 11.2307 4.2184 -1.63051
rclavicle 8.74653e-015 4.77083e-015
rhumerus -8.62139 30.4889 -94.6814
rradius 102.587
rwrist -62.6015
rhand -31.1382 -37.2917
rfingers 7.12502
rthumb -4.41657 -67.2256
lclavicle 8.74653e-015 4.77083e-015
lhumerus 9.41722 -5.40305 56.117
lradius 39.3667
lwrist -1.85262
lhand -20.792 -59.5137
lfingers 7.12502
lthumb 5.57516 -29.6071
rfemur -11.3304 10.1883 12.2823
rtibia 1.51076e-014
rfoot -11.4337 -14.0966
rtoes -6.06931
lfemur -23.8033 2.87063 -12.2223
ltibia 32.0926
lfoot -21.774 11.7231
ltoes -54.5776
